<mxfile host="65bd71144e">
    <diagram id="f0XuFFp9ulr414WTjhQB" name="Page-1">
        <mxGraphModel dx="292" dy="554" grid="1" gridSize="10" guides="1" tooltips="1" connect="1" arrows="1" fold="1" page="1" pageScale="1" pageWidth="850" pageHeight="1100" math="0" shadow="0">
            <root>
                <mxCell id="0"/>
                <mxCell id="1" parent="0"/>
                <mxCell id="2" value="Utilidad" style="text;html=1;strokeColor=none;fillColor=none;align=left;verticalAlign=middle;whiteSpace=wrap;rounded=0;spacingLeft=4;fontColor=#006EAF;" parent="1" vertex="1">
                    <mxGeometry x="40" y="280" width="60" height="30" as="geometry"/>
                </mxCell>
                <mxCell id="11" style="edgeStyle=orthogonalEdgeStyle;html=1;endArrow=open;endFill=0;entryX=0;entryY=0.475;entryDx=0;entryDy=0;entryPerimeter=0;spacingLeft=4;fontColor=#006EAF;strokeColor=#006EAF;" parent="1" source="3" target="7" edge="1">
                    <mxGeometry relative="1" as="geometry"/>
                </mxCell>
                <mxCell id="3" value="Desempeño" style="text;html=1;align=left;verticalAlign=middle;resizable=1;points=[];autosize=1;strokeColor=none;fillColor=none;movable=1;rotatable=1;deletable=1;editable=1;connectable=1;spacingLeft=4;fontColor=#006EAF;" parent="1" vertex="1">
                    <mxGeometry x="155" y="73" width="75" height="30" as="geometry"/>
                </mxCell>
                <mxCell id="4" value="Facilidad de&lt;br&gt;modificación" style="text;html=1;align=left;verticalAlign=middle;resizable=1;points=[];autosize=1;strokeColor=none;fillColor=none;movable=1;rotatable=1;deletable=1;editable=1;connectable=1;spacingLeft=4;fontColor=#006EAF;" parent="1" vertex="1">
                    <mxGeometry x="155" y="190" width="75" height="40" as="geometry"/>
                </mxCell>
                <mxCell id="5" value="Disponibilidad" style="text;align=left;verticalAlign=middle;resizable=1;points=[];autosize=1;strokeColor=none;fillColor=none;html=1;movable=1;rotatable=1;deletable=1;editable=1;connectable=1;spacingLeft=4;fontColor=#006EAF;" parent="1" vertex="1">
                    <mxGeometry x="155" y="345" width="90" height="30" as="geometry"/>
                </mxCell>
                <mxCell id="6" value="Seguridad" style="text;html=1;align=left;verticalAlign=middle;resizable=1;points=[];autosize=1;strokeColor=none;fillColor=none;movable=1;rotatable=1;deletable=1;editable=1;connectable=1;spacingLeft=4;fontColor=#006EAF;" parent="1" vertex="1">
                    <mxGeometry x="155" y="455" width="70" height="30" as="geometry"/>
                </mxCell>
                <mxCell id="7" value="Latencia&lt;br&gt;de datos" style="text;html=1;align=left;verticalAlign=middle;resizable=0;points=[];autosize=1;strokeColor=none;fillColor=none;spacingLeft=4;fontColor=#006EAF;" parent="1" vertex="1">
                    <mxGeometry x="300" y="40" width="70" height="40" as="geometry"/>
                </mxCell>
                <mxCell id="8" value="Rendimiento de&lt;br&gt;las transacciones&lt;br&gt;" style="text;html=1;align=left;verticalAlign=middle;resizable=0;points=[];autosize=1;strokeColor=none;fillColor=none;spacingLeft=4;fontColor=#006EAF;" parent="1" vertex="1">
                    <mxGeometry x="300" y="100" width="120" height="40" as="geometry"/>
                </mxCell>
                <mxCell id="9" value="Minimizar la latencia del almacenamiento&lt;br&gt;en la base de datos de clientes a 200ms" style="text;html=1;align=left;verticalAlign=middle;resizable=0;points=[];autosize=1;strokeColor=none;fillColor=none;spacingLeft=4;fontColor=#006EAF;" parent="1" vertex="1">
                    <mxGeometry x="531" y="40" width="240" height="40" as="geometry"/>
                </mxCell>
                <mxCell id="10" value="(M,L)" style="text;html=1;align=center;verticalAlign=middle;resizable=1;points=[];autosize=1;strokeColor=none;fillColor=none;spacingLeft=4;fontColor=#006EAF;fontStyle=1;movable=1;rotatable=1;deletable=1;editable=1;connectable=1;" parent="1" vertex="1">
                    <mxGeometry x="480" y="43" width="50" height="30" as="geometry"/>
                </mxCell>
                <mxCell id="12" style="edgeStyle=orthogonalEdgeStyle;html=1;endArrow=open;endFill=0;spacingLeft=4;fontColor=#006EAF;strokeColor=#006EAF;" parent="1" source="3" target="8" edge="1">
                    <mxGeometry relative="1" as="geometry">
                        <mxPoint x="260" y="110" as="sourcePoint"/>
                        <mxPoint x="310" y="69" as="targetPoint"/>
                    </mxGeometry>
                </mxCell>
                <mxCell id="13" value="Nuevas categorías&lt;br&gt;de products" style="text;html=1;align=left;verticalAlign=middle;resizable=1;points=[];autosize=1;strokeColor=none;fillColor=none;movable=1;rotatable=1;deletable=1;editable=1;connectable=1;spacingLeft=4;fontColor=#006EAF;" parent="1" vertex="1">
                    <mxGeometry x="300" y="160" width="110" height="40" as="geometry"/>
                </mxCell>
                <mxCell id="14" value="Cambio de COTS" style="text;html=1;align=center;verticalAlign=middle;resizable=0;points=[];autosize=1;strokeColor=none;fillColor=none;fontColor=#006EAF;" parent="1" vertex="1">
                    <mxGeometry x="300" y="210" width="120" height="30" as="geometry"/>
                </mxCell>
                <mxCell id="15" value="Fallos de hardware" style="text;align=left;verticalAlign=middle;resizable=1;points=[];autosize=1;strokeColor=none;fillColor=none;html=1;movable=1;rotatable=1;deletable=1;editable=1;connectable=1;spacingLeft=4;fontColor=#006EAF;" parent="1" vertex="1">
                    <mxGeometry x="300" y="320" width="130" height="30" as="geometry"/>
                </mxCell>
                <mxCell id="16" value="Fallos de software&lt;br&gt;de COTS" style="text;align=left;verticalAlign=middle;resizable=1;points=[];autosize=1;strokeColor=none;fillColor=none;html=1;movable=1;rotatable=1;deletable=1;editable=1;connectable=1;spacingLeft=4;fontColor=#006EAF;" parent="1" vertex="1">
                    <mxGeometry x="300" y="365" width="120" height="40" as="geometry"/>
                </mxCell>
                <mxCell id="17" value="Confidencialidad&lt;br&gt;de los datos" style="text;html=1;align=left;verticalAlign=middle;resizable=0;points=[];autosize=1;strokeColor=none;fillColor=none;fontColor=#006EAF;spacingLeft=4;" parent="1" vertex="1">
                    <mxGeometry x="300" y="425" width="110" height="40" as="geometry"/>
                </mxCell>
                <mxCell id="20" value="Integridad de&lt;br&gt;los datos" style="text;html=1;align=left;verticalAlign=middle;resizable=0;points=[];autosize=1;strokeColor=none;fillColor=none;fontColor=#006EAF;spacingLeft=4;" parent="1" vertex="1">
                    <mxGeometry x="300" y="480" width="100" height="40" as="geometry"/>
                </mxCell>
                <mxCell id="21" style="edgeStyle=orthogonalEdgeStyle;html=1;endArrow=open;endFill=0;entryX=0;entryY=0.538;entryDx=0;entryDy=0;entryPerimeter=0;spacingLeft=4;fontColor=#006EAF;strokeColor=#006EAF;" parent="1" source="4" target="13" edge="1">
                    <mxGeometry relative="1" as="geometry">
                        <mxPoint x="245" y="105" as="sourcePoint"/>
                        <mxPoint x="310" y="69" as="targetPoint"/>
                    </mxGeometry>
                </mxCell>
                <mxCell id="22" style="edgeStyle=orthogonalEdgeStyle;html=1;endArrow=open;endFill=0;spacingLeft=4;fontColor=#006EAF;strokeColor=#006EAF;" parent="1" source="4" edge="1">
                    <mxGeometry relative="1" as="geometry">
                        <mxPoint x="240" y="240" as="sourcePoint"/>
                        <mxPoint x="300" y="230" as="targetPoint"/>
                    </mxGeometry>
                </mxCell>
                <mxCell id="23" style="edgeStyle=orthogonalEdgeStyle;html=1;endArrow=open;endFill=0;spacingLeft=4;fontColor=#006EAF;strokeColor=#006EAF;" parent="1" source="5" target="15" edge="1">
                    <mxGeometry relative="1" as="geometry">
                        <mxPoint x="250" y="250" as="sourcePoint"/>
                        <mxPoint x="320" y="201.51999999999998" as="targetPoint"/>
                    </mxGeometry>
                </mxCell>
                <mxCell id="24" style="edgeStyle=orthogonalEdgeStyle;html=1;endArrow=open;endFill=0;spacingLeft=4;fontColor=#006EAF;strokeColor=#006EAF;entryX=-0.008;entryY=0.663;entryDx=0;entryDy=0;entryPerimeter=0;" parent="1" source="5" target="16" edge="1">
                    <mxGeometry relative="1" as="geometry">
                        <mxPoint x="260" y="260" as="sourcePoint"/>
                        <mxPoint x="330" y="211.51999999999998" as="targetPoint"/>
                    </mxGeometry>
                </mxCell>
                <mxCell id="25" style="edgeStyle=orthogonalEdgeStyle;html=1;endArrow=open;endFill=0;spacingLeft=4;fontColor=#006EAF;strokeColor=#006EAF;" parent="1" source="6" target="17" edge="1">
                    <mxGeometry relative="1" as="geometry">
                        <mxPoint x="270" y="270" as="sourcePoint"/>
                        <mxPoint x="340" y="221.51999999999998" as="targetPoint"/>
                    </mxGeometry>
                </mxCell>
                <mxCell id="26" style="edgeStyle=orthogonalEdgeStyle;html=1;endArrow=open;endFill=0;entryX=0;entryY=0.613;entryDx=0;entryDy=0;entryPerimeter=0;spacingLeft=4;fontColor=#006EAF;strokeColor=#006EAF;" parent="1" source="6" target="20" edge="1">
                    <mxGeometry relative="1" as="geometry">
                        <mxPoint x="280" y="280" as="sourcePoint"/>
                        <mxPoint x="350" y="231.51999999999998" as="targetPoint"/>
                    </mxGeometry>
                </mxCell>
                <mxCell id="27" value="Reproducir video en tiempo real&lt;br&gt;" style="text;html=1;align=left;verticalAlign=middle;resizable=0;points=[];autosize=1;strokeColor=none;fillColor=none;fontColor=#006EAF;" parent="1" vertex="1">
                    <mxGeometry x="531" y="100" width="190" height="30" as="geometry"/>
                </mxCell>
                <mxCell id="28" value="Agregar middleware CORBA en&lt;br&gt;menos de 20 personas/mes" style="text;html=1;align=left;verticalAlign=middle;resizable=0;points=[];autosize=1;strokeColor=none;fillColor=none;fontColor=#006EAF;" parent="1" vertex="1">
                    <mxGeometry x="531" y="150" width="190" height="40" as="geometry"/>
                </mxCell>
                <mxCell id="29" value="Cambiar la interfaz de usuario web&lt;br&gt;en menos de 4 personas/semana" style="text;html=1;align=left;verticalAlign=middle;resizable=0;points=[];autosize=1;strokeColor=none;fillColor=none;fontColor=#006EAF;" parent="1" vertex="1">
                    <mxGeometry x="531" y="205" width="210" height="40" as="geometry"/>
                </mxCell>
                <mxCell id="30" value="Corte de energía en sitio 1 requiere&lt;br&gt;redirigir tráfico a sitio 2 en menos de 3&quot;" style="text;html=1;align=left;verticalAlign=middle;resizable=0;points=[];autosize=1;strokeColor=none;fillColor=none;fontColor=#006EAF;" parent="1" vertex="1">
                    <mxGeometry x="531" y="260" width="230" height="40" as="geometry"/>
                </mxCell>
                <mxCell id="31" value="Reinicio luego de falla de disco&lt;br&gt;en menos de 5 minutos" style="text;html=1;align=left;verticalAlign=middle;resizable=0;points=[];autosize=1;strokeColor=none;fillColor=none;fontColor=#006EAF;" parent="1" vertex="1">
                    <mxGeometry x="531" y="315" width="190" height="40" as="geometry"/>
                </mxCell>
                <mxCell id="32" value="Fallos de red detectados y recuperados&lt;br&gt;en menos de 1.5 minutos" style="text;html=1;align=left;verticalAlign=middle;resizable=0;points=[];autosize=1;strokeColor=none;fillColor=none;fontColor=#006EAF;" parent="1" vertex="1">
                    <mxGeometry x="531" y="370" width="230" height="40" as="geometry"/>
                </mxCell>
                <mxCell id="33" value="Las transacciones de tarjetas de crédito&lt;br&gt;son seguros 99.999% del tiempo" style="text;html=1;align=left;verticalAlign=middle;resizable=0;points=[];autosize=1;strokeColor=none;fillColor=none;fontColor=#006EAF;" parent="1" vertex="1">
                    <mxGeometry x="531" y="425" width="240" height="40" as="geometry"/>
                </mxCell>
                <mxCell id="34" value="La autorización contra la base de datos de&lt;br&gt;cliente funciona el 99.999% del tiempo" style="text;html=1;align=left;verticalAlign=middle;resizable=0;points=[];autosize=1;strokeColor=none;fillColor=none;fontColor=#006EAF;" parent="1" vertex="1">
                    <mxGeometry x="531" y="480" width="250" height="40" as="geometry"/>
                </mxCell>
                <mxCell id="35" value="(H,M)" style="text;html=1;align=center;verticalAlign=middle;resizable=1;points=[];autosize=1;strokeColor=none;fillColor=none;spacingLeft=4;fontColor=#006EAF;fontStyle=1;movable=1;rotatable=1;deletable=1;editable=1;connectable=1;" parent="1" vertex="1">
                    <mxGeometry x="480" y="100" width="50" height="30" as="geometry"/>
                </mxCell>
                <mxCell id="36" value="(L,H)" style="text;html=1;align=center;verticalAlign=middle;resizable=1;points=[];autosize=1;strokeColor=none;fillColor=none;spacingLeft=4;fontColor=#006EAF;fontStyle=1;movable=1;rotatable=1;deletable=1;editable=1;connectable=1;" parent="1" vertex="1">
                    <mxGeometry x="480" y="155" width="50" height="30" as="geometry"/>
                </mxCell>
                <mxCell id="37" value="(H,L)" style="text;html=1;align=center;verticalAlign=middle;resizable=1;points=[];autosize=1;strokeColor=none;fillColor=none;spacingLeft=4;fontColor=#006EAF;fontStyle=1;movable=1;rotatable=1;deletable=1;editable=1;connectable=1;" parent="1" vertex="1">
                    <mxGeometry x="480" y="210" width="50" height="30" as="geometry"/>
                </mxCell>
                <mxCell id="38" value="(L,H)" style="text;html=1;align=center;verticalAlign=middle;resizable=1;points=[];autosize=1;strokeColor=none;fillColor=none;spacingLeft=4;fontColor=#006EAF;fontStyle=1;movable=1;rotatable=1;deletable=1;editable=1;connectable=1;" parent="1" vertex="1">
                    <mxGeometry x="480" y="265" width="50" height="30" as="geometry"/>
                </mxCell>
                <mxCell id="39" value="(M,M)&lt;span style=&quot;color: rgba(0, 0, 0, 0); font-family: monospace; font-size: 0px;&quot;&gt;%3CmxGraphModel%3E%3Croot%3E%3CmxCell%20id%3D%220%22%2F%3E%3CmxCell%20id%3D%221%22%20parent%3D%220%22%2F%3E%3CmxCell%20id%3D%222%22%20value%3D%22(L%2CH)%22%20style%3D%22text%3Bhtml%3D1%3Balign%3Dcenter%3BverticalAlign%3Dmiddle%3Bresizable%3D0%3Bpoints%3D%5B%5D%3Bautosize%3D1%3BstrokeColor%3Dnone%3BfillColor%3Dnone%3BspacingLeft%3D4%3BfontColor%3D%23006EAF%3B%22%20vertex%3D%221%22%20parent%3D%221%22%3E%3CmxGeometry%20x%3D%22390%22%20y%3D%22305%22%20width%3D%2250%22%20height%3D%2230%22%20as%3D%22geometry%22%2F%3E%3C%2FmxCell%3E%3C%2Froot%3E%3C%2FmxGraphModel%3E&lt;/span&gt;" style="text;html=1;align=center;verticalAlign=middle;resizable=1;points=[];autosize=1;strokeColor=none;fillColor=none;spacingLeft=4;fontColor=#006EAF;fontStyle=1;movable=1;rotatable=1;deletable=1;editable=1;connectable=1;" parent="1" vertex="1">
                    <mxGeometry x="480" y="320" width="50" height="30" as="geometry"/>
                </mxCell>
                <mxCell id="40" value="(H,M)" style="text;html=1;align=center;verticalAlign=middle;resizable=1;points=[];autosize=1;strokeColor=none;fillColor=none;spacingLeft=4;fontColor=#006EAF;fontStyle=1;movable=1;rotatable=1;deletable=1;editable=1;connectable=1;" parent="1" vertex="1">
                    <mxGeometry x="480" y="375" width="50" height="30" as="geometry"/>
                </mxCell>
                <mxCell id="41" value="(L,H)&lt;span style=&quot;color: rgba(0, 0, 0, 0); font-family: monospace; font-size: 0px;&quot;&gt;%3CmxGraphModel%3E%3Croot%3E%3CmxCell%20id%3D%220%22%2F%3E%3CmxCell%20id%3D%221%22%20parent%3D%220%22%2F%3E%3CmxCell%20id%3D%222%22%20value%3D%22(H%2CM)%22%20style%3D%22text%3Bhtml%3D1%3Balign%3Dcenter%3BverticalAlign%3Dmiddle%3Bresizable%3D0%3Bpoints%3D%5B%5D%3Bautosize%3D1%3BstrokeColor%3Dnone%3BfillColor%3Dnone%3BspacingLeft%3D4%3BfontColor%3D%23006EAF%3B%22%20vertex%3D%221%22%20parent%3D%221%22%3E%3CmxGeometry%20x%3D%22380%22%20y%3D%22415%22%20width%3D%2260%22%20height%3D%2230%22%20as%3D%22geometry%22%2F%3E%3C%2FmxCell%3E%3C%2Froot%3E%3C%2FmxGraphModel%3E&lt;/span&gt;" style="text;html=1;align=center;verticalAlign=middle;resizable=1;points=[];autosize=1;strokeColor=none;fillColor=none;spacingLeft=4;fontColor=#006EAF;fontStyle=1;movable=1;rotatable=1;deletable=1;editable=1;connectable=1;" parent="1" vertex="1">
                    <mxGeometry x="480" y="430" width="50" height="30" as="geometry"/>
                </mxCell>
                <mxCell id="42" value="(L,H)&lt;span style=&quot;color: rgba(0, 0, 0, 0); font-family: monospace; font-size: 0px;&quot;&gt;%3CmxGraphModel%3E%3Croot%3E%3CmxCell%20id%3D%220%22%2F%3E%3CmxCell%20id%3D%221%22%20parent%3D%220%22%2F%3E%3CmxCell%20id%3D%222%22%20value%3D%22(H%2CM)%22%20style%3D%22text%3Bhtml%3D1%3Balign%3Dcenter%3BverticalAlign%3Dmiddle%3Bresizable%3D0%3Bpoints%3D%5B%5D%3Bautosize%3D1%3BstrokeColor%3Dnone%3BfillColor%3Dnone%3BspacingLeft%3D4%3BfontColor%3D%23006EAF%3B%22%20vertex%3D%221%22%20parent%3D%221%22%3E%3CmxGeometry%20x%3D%22380%22%20y%3D%22415%22%20width%3D%2260%22%20height%3D%2230%22%20as%3D%22geometry%22%2F%3E%3C%2FmxCell%3E%3C%2Froot%3E%3C%2FmxGraphModel%3E&lt;/span&gt;" style="text;html=1;align=center;verticalAlign=middle;resizable=1;points=[];autosize=1;strokeColor=none;fillColor=none;spacingLeft=4;fontColor=#006EAF;fontStyle=1;movable=1;rotatable=1;deletable=1;editable=1;connectable=1;" parent="1" vertex="1">
                    <mxGeometry x="480" y="485" width="50" height="30" as="geometry"/>
                </mxCell>
                <mxCell id="43" style="edgeStyle=orthogonalEdgeStyle;html=1;endArrow=open;endFill=0;entryX=0.02;entryY=0.583;entryDx=0;entryDy=0;entryPerimeter=0;spacingLeft=4;fontColor=#006EAF;strokeColor=#006EAF;" parent="1" source="17" target="42" edge="1">
                    <mxGeometry relative="1" as="geometry">
                        <mxPoint x="240" y="420" as="sourcePoint"/>
                        <mxPoint x="310" y="514.52" as="targetPoint"/>
                    </mxGeometry>
                </mxCell>
                <mxCell id="44" style="edgeStyle=orthogonalEdgeStyle;html=1;endArrow=open;endFill=0;spacingLeft=4;fontColor=#006EAF;strokeColor=#006EAF;" parent="1" source="17" target="41" edge="1">
                    <mxGeometry relative="1" as="geometry">
                        <mxPoint x="420" y="450" as="sourcePoint"/>
                        <mxPoint x="491" y="512.49" as="targetPoint"/>
                    </mxGeometry>
                </mxCell>
                <mxCell id="45" style="edgeStyle=orthogonalEdgeStyle;html=1;endArrow=open;endFill=0;spacingLeft=4;fontColor=#006EAF;strokeColor=#006EAF;" parent="1" source="15" target="39" edge="1">
                    <mxGeometry relative="1" as="geometry">
                        <mxPoint x="420" y="455" as="sourcePoint"/>
                        <mxPoint x="490" y="455" as="targetPoint"/>
                    </mxGeometry>
                </mxCell>
                <mxCell id="46" style="edgeStyle=orthogonalEdgeStyle;html=1;endArrow=open;endFill=0;spacingLeft=4;fontColor=#006EAF;strokeColor=#006EAF;entryX=0.02;entryY=0.55;entryDx=0;entryDy=0;entryPerimeter=0;" parent="1" source="15" target="40" edge="1">
                    <mxGeometry relative="1" as="geometry">
                        <mxPoint x="440" y="345" as="sourcePoint"/>
                        <mxPoint x="490" y="345" as="targetPoint"/>
                    </mxGeometry>
                </mxCell>
                <mxCell id="47" style="edgeStyle=orthogonalEdgeStyle;html=1;endArrow=open;endFill=0;spacingLeft=4;fontColor=#006EAF;strokeColor=#006EAF;entryX=0.02;entryY=0.517;entryDx=0;entryDy=0;entryPerimeter=0;" parent="1" source="15" target="38" edge="1">
                    <mxGeometry relative="1" as="geometry">
                        <mxPoint x="440" y="345" as="sourcePoint"/>
                        <mxPoint x="491" y="401.5" as="targetPoint"/>
                    </mxGeometry>
                </mxCell>
                <mxCell id="49" style="edgeStyle=orthogonalEdgeStyle;html=1;endArrow=open;endFill=0;spacingLeft=4;fontColor=#006EAF;strokeColor=#006EAF;entryX=-0.02;entryY=0.617;entryDx=0;entryDy=0;entryPerimeter=0;" parent="1" source="14" target="36" edge="1">
                    <mxGeometry relative="1" as="geometry">
                        <mxPoint x="440" y="345" as="sourcePoint"/>
                        <mxPoint x="491" y="290.51" as="targetPoint"/>
                    </mxGeometry>
                </mxCell>
                <mxCell id="50" style="edgeStyle=orthogonalEdgeStyle;html=1;endArrow=open;endFill=0;spacingLeft=4;fontColor=#006EAF;strokeColor=#006EAF;" parent="1" source="14" target="37" edge="1">
                    <mxGeometry relative="1" as="geometry">
                        <mxPoint x="430" y="240" as="sourcePoint"/>
                        <mxPoint x="489" y="183.51" as="targetPoint"/>
                    </mxGeometry>
                </mxCell>
                <mxCell id="51" style="edgeStyle=orthogonalEdgeStyle;html=1;endArrow=open;endFill=0;spacingLeft=4;fontColor=#006EAF;strokeColor=#006EAF;entryX=0.02;entryY=0.583;entryDx=0;entryDy=0;entryPerimeter=0;" parent="1" source="7" target="10" edge="1">
                    <mxGeometry relative="1" as="geometry">
                        <mxPoint x="430" y="235" as="sourcePoint"/>
                        <mxPoint x="489" y="183.51" as="targetPoint"/>
                    </mxGeometry>
                </mxCell>
                <mxCell id="52" style="edgeStyle=orthogonalEdgeStyle;html=1;endArrow=open;endFill=0;spacingLeft=4;fontColor=#006EAF;strokeColor=#006EAF;entryX=0;entryY=0.667;entryDx=0;entryDy=0;entryPerimeter=0;" parent="1" source="7" target="35" edge="1">
                    <mxGeometry relative="1" as="geometry">
                        <mxPoint x="380" y="70" as="sourcePoint"/>
                        <mxPoint x="491" y="70.49000000000001" as="targetPoint"/>
                    </mxGeometry>
                </mxCell>
                <mxCell id="53" style="edgeStyle=orthogonalEdgeStyle;html=1;endArrow=open;endFill=0;spacingLeft=4;fontColor=#006EAF;strokeColor=#006EAF;entryX=0;entryY=0.483;entryDx=0;entryDy=0;entryPerimeter=0;" parent="1" source="2" target="3" edge="1">
                    <mxGeometry relative="1" as="geometry">
                        <mxPoint x="260" y="370" as="sourcePoint"/>
                        <mxPoint x="310" y="345" as="targetPoint"/>
                    </mxGeometry>
                </mxCell>
                <mxCell id="54" style="edgeStyle=orthogonalEdgeStyle;html=1;endArrow=open;endFill=0;spacingLeft=4;fontColor=#006EAF;strokeColor=#006EAF;entryX=0.013;entryY=0.538;entryDx=0;entryDy=0;entryPerimeter=0;" parent="1" source="2" target="4" edge="1">
                    <mxGeometry relative="1" as="geometry">
                        <mxPoint x="110" y="265" as="sourcePoint"/>
                        <mxPoint x="170" y="97.49000000000001" as="targetPoint"/>
                    </mxGeometry>
                </mxCell>
                <mxCell id="55" style="edgeStyle=orthogonalEdgeStyle;html=1;endArrow=open;endFill=0;spacingLeft=4;fontColor=#006EAF;strokeColor=#006EAF;entryX=0;entryY=0.5;entryDx=0;entryDy=0;entryPerimeter=0;exitX=1;exitY=0.5;exitDx=0;exitDy=0;" parent="1" source="2" target="5" edge="1">
                    <mxGeometry relative="1" as="geometry">
                        <mxPoint x="110" y="265" as="sourcePoint"/>
                        <mxPoint x="165.97500000000002" y="221.51999999999998" as="targetPoint"/>
                    </mxGeometry>
                </mxCell>
                <mxCell id="56" style="edgeStyle=orthogonalEdgeStyle;html=1;endArrow=open;endFill=0;spacingLeft=4;fontColor=#006EAF;strokeColor=#006EAF;entryX=-0.014;entryY=0.583;entryDx=0;entryDy=0;entryPerimeter=0;exitX=1;exitY=0.5;exitDx=0;exitDy=0;" parent="1" source="2" target="6" edge="1">
                    <mxGeometry relative="1" as="geometry">
                        <mxPoint x="110" y="265" as="sourcePoint"/>
                        <mxPoint x="170" y="370" as="targetPoint"/>
                    </mxGeometry>
                </mxCell>
            </root>
        </mxGraphModel>
    </diagram>
</mxfile>